<svg width="318" height="318" fill="none" xmlns="http://www.w3.org/2000/svg">
    <ellipse cx="159" cy="159.277" rx="158.863" ry="158.442" fill="#E1E7FF"/>
    <g clip-path="url(#a)">
        <path d="m217.989 232.203-98.151-96.834c-4.281-4.223-11.221-4.223-15.495 0l-5.173 5.096a10.705 10.705 0 0 0 0 15.288l98.151 96.834c4.282 4.223 11.223 4.223 15.496 0l5.165-5.096a10.697 10.697 0 0 0 .007-15.288z" fill="#E9216E"/>
        <path d="M197.321 135.369 99.17 232.203a10.705 10.705 0 0 0 0 15.288l5.165 5.096c4.282 4.223 11.222 4.223 15.496 0l98.158-96.828a10.7 10.7 0 0 0 0-15.286l-5.165-5.096c-4.28-4.231-11.221-4.231-15.503-.008z" fill="#E9216E"/>
        <path d="m219.114 154.447-39.899 39.601 40.21 39.703s1.091 1.808 1.447 3.093c.569 2.058.592 3.415 0 5.466-.36 1.246-1.447 2.991-1.447 2.991s-4.472 6.81-8.89 9.075c-.9.461-1.406.745-2.377 1.031-2.246.662-3.736.613-5.996 0-1.602-.435-3.824-1.856-3.824-1.856l-39.693-39.188v-40.837l40.623-39.704s2.111-1.242 3.618-1.546c1.464-.296 2.358-.285 3.825 0 1.545.3 3.721 1.546 3.721 1.546s8.138 4.724 9.716 9.9c.394 1.293.49 2.059.62 3.404.152 1.563.378 2.497 0 4.022-.346 1.398-1.654 3.299-1.654 3.299z" fill="#F95393"/>
    </g>
    <path d="M122.175 86.62a32.346 32.346 0 0 1-12.818-12.816 6.175 6.175 0 0 0-10.826 0A32.349 32.349 0 0 1 85.714 86.62a6.173 6.173 0 0 0 0 10.825 32.343 32.343 0 0 1 12.818 12.818 6.172 6.172 0 0 0 5.413 3.203 6.172 6.172 0 0 0 5.412-3.203 32.352 32.352 0 0 1 12.818-12.818 6.175 6.175 0 0 0 0-10.826zM169.009 125.625a17.76 17.76 0 0 1-7.037-7.036 3.389 3.389 0 0 0-5.943-.001 17.757 17.757 0 0 1-7.037 7.037 3.389 3.389 0 0 0 0 5.944 17.757 17.757 0 0 1 7.037 7.037 3.389 3.389 0 0 0 5.943 0 17.763 17.763 0 0 1 7.037-7.037 3.39 3.39 0 0 0 0-5.944z" fill="#9FB0FE"/>
    <path d="M173.95 53.848a27.272 27.272 0 0 1-10.806-10.806 5.207 5.207 0 0 0-9.128 0 27.275 27.275 0 0 1-10.807 10.806 5.206 5.206 0 0 0 0 9.127 27.271 27.271 0 0 1 10.807 10.808 5.206 5.206 0 0 0 9.128 0 27.271 27.271 0 0 1 10.807-10.808 5.204 5.204 0 0 0-.001-9.127z" fill="#fff"/>
    <path d="M218.876 87.792c-3.928-2.097-7.143-5.226-9.298-9.047-.787-1.395-2.291-2.262-3.927-2.262-1.636 0-3.14.867-3.927 2.262-2.156 3.821-5.371 6.95-9.3 9.047-1.433.766-2.324 2.23-2.323 3.822 0 1.59.891 3.055 2.324 3.82 3.928 2.097 7.143 5.226 9.299 9.048.787 1.395 2.291 2.261 3.927 2.261 1.635 0 3.14-.867 3.927-2.261 2.155-3.822 5.371-6.951 9.299-9.048 1.433-.766 2.324-2.23 2.324-3.82 0-1.592-.891-3.056-2.325-3.822z" fill="#6583FE"/>
    <defs>
        <clipPath id="a">
            <path fill="#fff" transform="translate(95.96 131.959)" d="M0 0h125.241v123.56H0z"/>
        </clipPath>
    </defs>
</svg>
