<svg width="30" height="29" fill="none" xmlns="http://www.w3.org/2000/svg">
    <g clip-path="url(#a)" fill="#fff">
        <path d="M18.6 16.022c-.651 0-1.178.528-1.178 1.179v4.714a1.18 1.18 0 0 1-1.179 1.179h-3.536V5.414a2.376 2.376 0 0 0-1.605-2.24l-.349-.117h5.49c.651 0 1.18.529 1.18 1.178v3.536a1.178 1.178 0 1 0 2.356 0V4.235A3.54 3.54 0 0 0 16.243.7H3.573c-.045 0-.083.02-.126.026C3.39.721 3.336.7 3.278.7A2.36 2.36 0 0 0 .921 3.057v21.215c0 1.007.641 1.906 1.605 2.241l7.093 2.364c.24.075.48.11.731.11a2.36 2.36 0 0 0 2.357-2.357V25.45h3.536a3.54 3.54 0 0 0 3.536-3.536v-4.714c0-.651-.526-1.18-1.178-1.18z"/>
        <path d="m28.863 11.652-4.715-4.715a1.179 1.179 0 0 0-2.011.834v3.536h-4.715a1.18 1.18 0 0 0 0 2.357h4.715V17.2a1.179 1.179 0 0 0 2.012.834l4.714-4.716c.461-.46.461-1.205 0-1.666z"/>
    </g>
    <defs>
        <clipPath id="a">
            <path fill="#fff" transform="translate(.92 .698)" d="M0 0h28.288v28.288H0z"/>
        </clipPath>
    </defs>
</svg>
