<svg width="366" height="82" fill="none" xmlns="http://www.w3.org/2000/svg">
    <mask id="a" mask-type="alpha" maskUnits="userSpaceOnUse" x="0" y="0" width="123" height="82">
        <path fill-rule="evenodd" clip-rule="evenodd" d="M.427.257h121.617v81.078H.427V.257z" fill="#fff"/>
    </mask>
    <g mask="url(#a)">
        <path d="M83.453 63.633a64.204 64.204 0 0 0 3.142 2.16c2.458 1.585 5.03 3.02 7.77 4.117 2.727 1.092 5.654 1.887 8.68 1.808 1.505-.043 3.028-.332 4.432-.951 1.401-.623 2.669-1.54 3.649-2.736.986-1.19 1.639-2.628 1.967-4.112.332-1.485.367-3.01.219-4.498a19.728 19.728 0 0 0-.962-4.36 23.381 23.381 0 0 0-1.811-4.077c-3.117-5.08-7.457-9.275-12.499-12.416-5.05-3.122-10.795-5.112-16.697-5.88-5.902-.805-11.96-.32-17.718 1.102-5.76 1.447-11.315 3.802-16.275 7.122-4.96 3.318-9.29 7.585-12.544 12.633-1.607 2.533-2.963 5.304-3.606 8.365-.316 1.523-.462 3.118-.295 4.716.157 1.595.6 3.182 1.317 4.632 1.468 2.901 3.849 5.153 6.566 6.744a20.932 20.932 0 0 0 4.284 1.882c1.474.491 2.985.8 4.495 1.04 6.067.874 12.106.25 17.936-.877 5.842-1.153 11.516-2.913 17.032-5.082 2.75-1.085 5.486-2.337 8.1-3.646 2.637-1.307 5.257-2.684 7.81-4.212 5.106-3.033 9.999-6.68 14.015-11.276a48.577 48.577 0 0 0 5.285-7.378c1.523-2.626 2.824-5.43 3.623-8.495.386-1.534.661-3.13.675-4.791.02-1.654-.201-3.373-.794-5.017-1.175-3.314-3.63-5.943-6.551-7.645a15.944 15.944 0 0 0-4.755-1.82 14.719 14.719 0 0 0-5.171-.133c-1.701.254-3.323.793-4.807 1.497-1.495.697-2.852 1.559-4.121 2.476-1.274.919-2.443 1.912-3.567 2.915a110.872 110.872 0 0 0-3.253 3.065c-2.117 2.081-4.136 4.228-6.112 6.386-3.95 4.315-7.735 8.674-11.76 12.679-2.007 1.995-4.104 3.922-6.244 5.653-2.166 1.713-4.449 3.276-6.852 4.603-4.794 2.66-10.057 4.443-15.387 4.881-5.322.434-10.667-.544-15.362-2.952-2.35-1.173-4.556-2.728-6.535-4.467a33.086 33.086 0 0 1-5.257-5.971c-3.06-4.415-5.28-9.488-6.715-14.749a58.936 58.936 0 0 1-.908-3.975 43.245 43.245 0 0 1-.543-3.996c-.238-2.686-.264-5.399.021-8.015.281-2.61.855-5.15 1.846-7.332.996-2.183 2.404-3.933 4.192-5.002.223-.123.466-.275.68-.361.213-.081.421-.169.628-.264.435-.11.85-.262 1.313-.272a7.31 7.31 0 0 1 2.935.328c1.046.322 2.128.803 3.2 1.418a29.919 29.919 0 0 1 3.16 2.173 46.428 46.428 0 0 1 3.017 2.643l.736.716.762.76 1.524 1.524c2.022 2.04 4.024 4.11 6.017 6.193 3.981 4.178 7.92 8.428 11.9 12.676 7.962 8.49 16.118 16.985 25.118 24.749l.045.038a4.164 4.164 0 0 0 5.837-.487 4.085 4.085 0 0 0-.49-5.79l-.004-.002c-8.716-7.304-16.803-15.472-24.84-23.807-4.02-4.168-8.034-8.38-12.126-12.553a476.257 476.257 0 0 0-6.211-6.214l-2.37-2.302-.838-.79a53.102 53.102 0 0 0-3.582-3.047 37.086 37.086 0 0 0-4.067-2.703c-1.464-.811-3.057-1.522-4.805-2.026a14.51 14.51 0 0 0-5.707-.5c-1 .078-1.986.372-2.939.681-.462.193-.922.393-1.377.6-.45.21-.827.447-1.234.687a16.477 16.477 0 0 0-4.103 3.663C4.444 7.383 3.582 8.92 2.89 10.472 1.534 13.596.906 16.792.609 19.927c-.292 3.142-.214 6.241.1 9.31.162 1.535.389 3.062.693 4.59.309 1.522.68 2.99 1.09 4.47 1.694 5.871 4.248 11.536 7.871 16.613a39.262 39.262 0 0 0 6.33 6.972c2.411 2.06 5.028 3.844 7.906 5.238 5.72 2.841 12.301 3.934 18.588 3.318 6.305-.612 12.287-2.774 17.615-5.826 2.67-1.524 5.179-3.295 7.542-5.222 2.352-1.958 4.505-4.002 6.588-6.13 4.15-4.251 7.916-8.723 11.746-13.023 1.914-2.151 3.846-4.262 5.842-6.281 2.003-2.01 4.051-4 6.188-5.601 2.14-1.602 4.436-2.837 6.803-3.216 2.305-.405 4.798.092 6.913 1.285 2.106 1.178 3.865 3.053 4.651 5.216.824 2.156.725 4.748.109 7.288-.624 2.551-1.73 5.076-3.08 7.475a44.636 44.636 0 0 1-4.736 6.815c-3.578 4.214-8.065 7.69-12.908 10.66-2.42 1.493-4.937 2.864-7.497 4.178-2.573 1.334-5.12 2.541-7.775 3.635-5.291 2.167-10.77 3.95-16.356 5.133-5.569 1.166-11.307 1.81-16.825 1.086-1.37-.198-2.73-.456-4.026-.87a17.994 17.994 0 0 1-3.72-1.567c-2.309-1.299-4.331-3.195-5.517-5.468-1.177-2.28-1.435-4.953-.9-7.57.506-2.625 1.686-5.172 3.146-7.54 2.963-4.748 7.014-8.873 11.673-12.08 4.67-3.224 9.96-5.56 15.481-7.032 5.53-1.445 11.292-1.987 16.971-1.295 5.667.654 11.206 2.485 16.099 5.416.632.333 1.2.766 1.796 1.155.59.399 1.193.784 1.737 1.244.557.444 1.123.879 1.673 1.33l1.572 1.448c.543.465.998 1.015 1.492 1.53.481.524.989 1.027 1.414 1.6l1.332 1.672c.208.285.394.58.593.868.202.287.391.582.561.889 1.397 2.427 2.406 5.136 2.727 7.91.159 1.385.143 2.787-.136 4.13-.277 1.34-.837 2.613-1.69 3.674-.843 1.065-1.983 1.918-3.229 2.49-1.256.575-2.643.864-4.047.925-2.822.115-5.664-.598-8.338-1.629-2.687-1.031-5.241-2.408-7.692-3.939a64.068 64.068 0 0 1-3.138-2.093s-.29-.174-.457.122a.338.338 0 0 0 .069.404" fill="#5E54C5"/>
    </g>
    <path fill-rule="evenodd" clip-rule="evenodd" d="M302.309 57.184 292.508 33.6c-.222-.607-.631-.911-1.23-.911-.596 0-1.017.304-1.261.911l-9.77 23.55c-.066.158-.1.349-.1.573 0 .36.117.67.35.929.232.256.537.387.913.387.621 0 1.019-.269 1.197-.81l8.671-21.254 8.639 21.255c.244.54.655.81 1.231.81.354 0 .659-.132.913-.388.254-.26.382-.569.382-.929 0-.201-.044-.383-.134-.539M166.324 33.028c.208.224.313.505.313.842 0 .225-.056.472-.165.742l-9.814 23.584c-.243.562-.626.843-1.154.843-.285 0-.522-.06-.708-.186-.187-.122-.345-.342-.477-.657l-9.782-23.448c-.131-.338-.197-.63-.197-.878 0-.36.115-.646.346-.86.231-.214.532-.321.905-.321.571 0 .966.282 1.186.844l8.727 21.39 8.695-21.323c.131-.337.297-.572.494-.706.198-.136.461-.205.791-.205.351 0 .631.113.84.339M233.18 33.06c.274-.245.6-.371.981-.371.405 0 .737.126.999.372.262.248.393.563.393.944v23.718c0 .36-.131.67-.393.929-.262.256-.594.387-.999.387-.474 0-.821-.145-1.034-.437l-17.089-21.189v20.31c0 .36-.13.67-.392.929-.261.256-.595.387-.999.387-.405 0-.737-.124-.998-.372-.262-.246-.392-.562-.392-.944V34.005c0-.38.13-.696.392-.944.261-.246.593-.372.998-.372.429 0 .786.158 1.07.474L232.77 54.35V34.005c0-.38.136-.696.41-.944M269.688 33.028c.216.224.324.518.324.876 0 .338-.108.619-.324.844-.217.226-.498.336-.843.336h-7.719v22.64c0 .36-.119.669-.357.928a1.188 1.188 0 0 1-.908.387 1.2 1.2 0 0 1-.892-.387 1.293 1.293 0 0 1-.373-.929V35.084h-7.687c-.346 0-.627-.11-.843-.336a1.164 1.164 0 0 1-.324-.844c0-.358.107-.652.324-.876.216-.226.497-.34.843-.34h17.936c.345 0 .626.114.843.34M334.492 45.24c.254.248.381.573.381.975V55c0 .402-.127.733-.381.992-2.144 2.033-4.966 3.047-8.469 3.047-2.443 0-4.69-.636-6.74-1.912-2.052-1.277-3.682-3-4.893-5.173-1.208-2.174-1.813-4.547-1.813-7.121 0-2.552.599-4.911 1.797-7.087 1.197-2.17 2.822-3.897 4.875-5.173 2.05-1.275 4.308-1.911 6.774-1.911 1.659 0 3.169.247 4.529.743 1.358.496 2.672 1.288 3.94 2.374.254.188.381.46.381.814 0 .19-.046.361-.138.515a.806.806 0 0 1-.381.335.71.71 0 0 1-.312.409.929.929 0 0 1-.518.158 1.23 1.23 0 0 1-.864-.353c-.898-.827-1.878-1.43-2.939-1.808-1.06-.376-2.292-.567-3.698-.567-1.936 0-3.733.527-5.393 1.578-1.658 1.051-2.978 2.462-3.958 4.234a11.67 11.67 0 0 0-1.468 5.739c0 2.102.483 4.038 1.451 5.811.968 1.77 2.282 3.176 3.941 4.214a10.02 10.02 0 0 0 5.427 1.56c2.235 0 4.309-.674 6.222-2.02v-7.086h-5.392c-.393 0-.714-.118-.968-.353a1.16 1.16 0 0 1-.381-.886c0-.355.127-.643.381-.87.254-.223.575-.336.968-.336h6.671c.392 0 .714.125.968.373M364.911 56.863c.245.236.368.533.368.895 0 .36-.123.663-.368.91s-.555.371-.933.371h-15.641a1.25 1.25 0 0 1-.917-.387 1.275 1.275 0 0 1-.384-.929V34.005c0-.38.128-.696.384-.944.255-.246.56-.372.917-.372h15.641a1.262 1.262 0 0 1 1.301 1.283c0 .36-.123.658-.368.895-.245.236-.555.352-.933.352h-14.342v9.313h10.44c.378 0 .688.124.933.37.244.248.368.552.368.913 0 .359-.129.662-.384.91a1.272 1.272 0 0 1-.917.37h-10.44v9.413h14.342c.378 0 .688.12.933.355M198.934 57.184 189.132 33.6c-.221-.607-.631-.911-1.229-.911-.598 0-1.019.304-1.262.911l-9.769 23.55c-.067.158-.1.349-.1.573 0 .36.117.67.349.929.233.256.537.387.913.387.62 0 1.02-.269 1.197-.81l8.672-21.254 8.64 21.255c.243.54.652.81 1.228.81.355 0 .66-.132.915-.388.254-.26.382-.569.382-.929 0-.201-.045-.383-.134-.539" fill="#5E54C5"/>
</svg>
