<svg width="401" height="401" fill="none" xmlns="http://www.w3.org/2000/svg">
    <g clip-path="url(#a)">
        <path d="M200.5 251.654c-28.023 0-51.154-23.13-51.154-51.154 0-28.024 23.13-51.154 51.154-51.154 28.024 0 51.154 23.13 51.154 51.154 0 28.024-23.131 51.154-51.154 51.154zm0-75.619c-13.344 0-24.465 11.12-24.465 24.465s11.12 24.465 24.465 24.465 24.465-11.12 24.465-24.465-11.121-24.465-24.465-24.465z" fill="#F95393"/>
        <path d="M64.386 338.392c-3.558 0-6.672-1.334-9.34-4.003-73.395-73.839-73.395-193.939 0-267.778 5.337-5.337 13.789-5.337 18.682 0 5.337 5.338 5.337 13.79 0 18.683-63.164 63.608-63.164 166.805 0 230.414 5.337 5.337 5.337 13.789 0 18.682-2.67 2.668-5.783 4.002-9.342 4.002z" fill="#7D74D4"/>
        <path d="M336.613 338.392c-3.559 0-6.673-1.334-9.341-4.003-5.338-5.338-5.338-13.789 0-18.682 63.164-63.609 63.164-166.805 0-230.414-5.338-5.338-5.338-13.79 0-18.683 5.337-5.337 13.789-5.337 18.682 0 73.394 73.84 73.394 193.939 0 267.778-2.669 2.67-5.783 4.004-9.341 4.004z" fill="#5E54C5"/>
        <path d="M120.879 282.345c-3.559 0-6.672-1.334-9.341-4.003-43.147-43.147-43.147-112.983 0-155.685 5.338-5.337 13.79-5.337 18.683 0 5.337 5.338 5.337 13.789 0 18.682-32.472 32.472-32.472 85.405 0 118.321 5.337 5.337 5.337 13.789 0 18.682-2.67 2.669-5.784 4.003-9.342 4.003z" fill="#7D74D4"/>
        <path d="M280.121 282.345c-3.558 0-6.672-1.334-9.34-4.003-5.338-5.337-5.338-13.789 0-18.682 32.471-32.472 32.471-85.404 0-118.321-5.338-5.337-5.338-13.789 0-18.682 5.337-5.337 13.789-5.337 18.682 0 43.147 43.148 43.147 112.983 0 155.685-2.669 2.669-5.783 4.003-9.342 4.003z" fill="#5E54C5"/>
    </g>
    <defs>
        <clipPath id="a">
            <path fill="#fff" d="M0 0h401v401H0z"/>
        </clipPath>
    </defs>
</svg>
