<svg width="316" height="316" fill="none" xmlns="http://www.w3.org/2000/svg">
    <circle cx="157.815" cy="157.815" r="157.815" fill="#B7F2D2"/>
    <g clip-path="url(#a)">
        <path d="M273.709 124.384a15.122 15.122 0 0 1-4.611 10.716l-101.422 98.721-21.637 21.061a9.128 9.128 0 0 1-.521.468l-.058.054a11.676 11.676 0 0 1-1.077.865l-.108.079c-.178.128-.356.257-.543.377-.203.132-.41.257-.617.373l-.107.066a11.39 11.39 0 0 1-.568.319c-.219.116-.439.215-.658.315l-.104.045a10.145 10.145 0 0 1-1.301.518l-.078.025c-.203.074-.398.14-.593.198-.269.079-.534.141-.803.203l-.041.009a9.011 9.011 0 0 1-.572.132c-.381.071-.704.112-.949.141-.169.029-.327.05-.488.062a15.215 15.215 0 0 1-2.917 0c-.17-.016-.34-.041-.514-.066-.24-.033-.567-.075-.948-.149a10.023 10.023 0 0 1-.58-.133l-.045-.012a10.002 10.002 0 0 1-1.4-.406l-.092-.033a13.85 13.85 0 0 1-.733-.269c-.19-.079-.389-.17-.588-.265l-.107-.05c-.224-.104-.448-.207-.663-.323-.195-.104-.394-.22-.588-.336l-.108-.066a10.584 10.584 0 0 1-1.176-.783l-.112-.083c-.191-.14-.381-.281-.568-.435a13.702 13.702 0 0 1-.517-.459l-.054-.05a12.715 12.715 0 0 1-.518-.48l-58.52-58.518c-5.945-5.944-5.945-15.613 0-21.558a15.145 15.145 0 0 1 10.779-4.466c4.071 0 7.9 1.587 10.778 4.466l47.888 47.888 32.126-31.268 80.158-78.02c6.027-5.866 15.696-5.734 21.558.289a15.142 15.142 0 0 1 4.317 10.838z" fill="#51C989"/>
        <path d="M142.942 140.298a38.04 38.04 0 0 1-15.067-15.066 7.257 7.257 0 0 0-12.725-.001 38.032 38.032 0 0 1-15.068 15.067 7.257 7.257 0 0 0 .001 12.726 38.023 38.023 0 0 1 15.067 15.067 7.256 7.256 0 0 0 12.725-.001 38.032 38.032 0 0 1 15.068-15.067 7.258 7.258 0 0 0-.001-12.725z" fill="#45A873"/>
        <path d="M208.846 118.907a7.258 7.258 0 0 1-3.765 6.359 38.024 38.024 0 0 0-15.071 15.071 7.257 7.257 0 0 1-6.359 3.765h-.004a7.259 7.259 0 0 1-6.363-3.77 37.977 37.977 0 0 0-9.61-11.429 37.343 37.343 0 0 0-5.452-3.637 7.252 7.252 0 0 1-.004-12.722 38.06 38.06 0 0 0 15.07-15.07 7.25 7.25 0 0 1 6.359-3.766h.004a7.257 7.257 0 0 1 6.359 3.765 38.025 38.025 0 0 0 15.071 15.071 7.26 7.26 0 0 1 3.765 6.363z" fill="#fff"/>
        <path d="M155.369 75.26a38.032 38.032 0 0 1-15.067-15.066 7.26 7.26 0 0 0-12.726 0 38.02 38.02 0 0 1-15.067 15.066 7.258 7.258 0 0 0 0 12.725 38.023 38.023 0 0 1 15.068 15.068 7.256 7.256 0 0 0 12.725-.001 38.029 38.029 0 0 1 15.067-15.067 7.259 7.259 0 0 0 0-12.725z" fill="#51C989"/>
        <path d="M273.709 124.384a15.117 15.117 0 0 1-4.611 10.716l-101.421 98.721v-42.544l80.158-78.02c6.027-5.866 15.696-5.734 21.558.289a15.137 15.137 0 0 1 4.316 10.838z" fill="#45A873"/>
        <path d="M208.849 118.907a7.258 7.258 0 0 1-3.765 6.359 38.037 38.037 0 0 0-15.071 15.071 7.255 7.255 0 0 1-6.359 3.765h-.004a7.257 7.257 0 0 1-6.362-3.769 37.972 37.972 0 0 0-9.611-11.43v-19.996a38.052 38.052 0 0 0 9.615-11.433 7.25 7.25 0 0 1 6.359-3.766h.004a7.257 7.257 0 0 1 6.359 3.766 38.024 38.024 0 0 0 15.07 15.07 7.26 7.26 0 0 1 3.765 6.363z" fill="#fff"/>
    </g>
    <defs>
        <clipPath id="a">
            <path fill="#fff" transform="translate(61.647 51.783)" d="M0 0h212.063v212.063H0z"/>
        </clipPath>
    </defs>
</svg>
